<mxfile host="app.diagrams.net" agent="Mozilla/5.0 (Windows NT 10.0; Win64; x64) AppleWebKit/537.36 (KHTML, like Gecko) Chrome/138.0.0.0 Safari/537.36 Edg/138.0.0.0" version="28.0.6">
  <diagram name="Página-1" id="pzj38KKofrZ27vdK2mB4">
    <mxGraphModel dx="1426" dy="797" grid="1" gridSize="10" guides="1" tooltips="1" connect="1" arrows="1" fold="1" page="1" pageScale="1" pageWidth="827" pageHeight="1169" math="0" shadow="0">
      <root>
        <mxCell id="0" />
        <mxCell id="1" parent="0" />
        <mxCell id="G4cIfP8NTKr2SMPwqC4q-119" style="edgeStyle=orthogonalEdgeStyle;rounded=0;orthogonalLoop=1;jettySize=auto;html=1;exitX=1;exitY=0.5;exitDx=0;exitDy=0;endArrow=ERmany;endFill=0;" parent="1" source="G4cIfP8NTKr2SMPwqC4q-116" edge="1">
          <mxGeometry relative="1" as="geometry">
            <mxPoint x="1241" y="565.3333333333333" as="targetPoint" />
          </mxGeometry>
        </mxCell>
        <mxCell id="G4cIfP8NTKr2SMPwqC4q-116" value="" style="rounded=0;whiteSpace=wrap;html=1;fontSize=10;" parent="1" vertex="1">
          <mxGeometry x="1021" y="465" width="180" height="200" as="geometry" />
        </mxCell>
        <mxCell id="G4cIfP8NTKr2SMPwqC4q-115" value="WEATHER_STATION_READING" style="rounded=0;whiteSpace=wrap;html=1;fontSize=10;fontFamily=Lucida Console;" parent="1" vertex="1">
          <mxGeometry x="1241" y="445" width="220" height="20" as="geometry" />
        </mxCell>
        <mxCell id="G4cIfP8NTKr2SMPwqC4q-114" value="" style="rounded=0;whiteSpace=wrap;html=1;fontSize=10;" parent="1" vertex="1">
          <mxGeometry x="1241" y="465" width="220" height="260" as="geometry" />
        </mxCell>
        <mxCell id="G4cIfP8NTKr2SMPwqC4q-29" style="edgeStyle=orthogonalEdgeStyle;rounded=0;orthogonalLoop=1;jettySize=auto;html=1;exitX=1;exitY=0.5;exitDx=0;exitDy=0;entryX=0;entryY=0.5;entryDx=0;entryDy=0;dashed=1;fontFamily=Lucida Console;fontSize=10;" parent="1" source="G4cIfP8NTKr2SMPwqC4q-13" target="G4cIfP8NTKr2SMPwqC4q-25" edge="1">
          <mxGeometry relative="1" as="geometry" />
        </mxCell>
        <mxCell id="G4cIfP8NTKr2SMPwqC4q-13" value="&lt;font&gt;/stage/&lt;/font&gt;" style="rounded=0;whiteSpace=wrap;html=1;align=left;dashed=1;fontSize=10;verticalAlign=bottom;spacingLeft=2;fontFamily=Lucida Console;" parent="1" vertex="1">
          <mxGeometry x="284" y="625" width="120" height="120" as="geometry" />
        </mxCell>
        <mxCell id="G4cIfP8NTKr2SMPwqC4q-19" style="edgeStyle=orthogonalEdgeStyle;rounded=0;orthogonalLoop=1;jettySize=auto;html=1;exitX=0.5;exitY=1;exitDx=0;exitDy=0;entryX=0.5;entryY=0;entryDx=0;entryDy=0;dashed=1;fontFamily=Lucida Console;fontSize=10;" parent="1" source="G4cIfP8NTKr2SMPwqC4q-1" target="G4cIfP8NTKr2SMPwqC4q-13" edge="1">
          <mxGeometry relative="1" as="geometry" />
        </mxCell>
        <mxCell id="G4cIfP8NTKr2SMPwqC4q-23" style="edgeStyle=orthogonalEdgeStyle;rounded=0;orthogonalLoop=1;jettySize=auto;html=1;exitX=1;exitY=0.5;exitDx=0;exitDy=0;entryX=0;entryY=0.5;entryDx=0;entryDy=0;fontFamily=Lucida Console;fontSize=10;" parent="1" source="G4cIfP8NTKr2SMPwqC4q-1" target="G4cIfP8NTKr2SMPwqC4q-20" edge="1">
          <mxGeometry relative="1" as="geometry" />
        </mxCell>
        <mxCell id="G4cIfP8NTKr2SMPwqC4q-1" value="&lt;font&gt;Download dos&lt;br&gt;dados anuais&lt;/font&gt;" style="rounded=0;whiteSpace=wrap;html=1;fontSize=10;fontFamily=Helvetica;" parent="1" vertex="1">
          <mxGeometry x="304" y="545" width="80" height="40" as="geometry" />
        </mxCell>
        <mxCell id="G4cIfP8NTKr2SMPwqC4q-18" style="edgeStyle=orthogonalEdgeStyle;rounded=0;orthogonalLoop=1;jettySize=auto;html=1;exitX=1;exitY=0.5;exitDx=0;exitDy=0;entryX=0;entryY=0.5;entryDx=0;entryDy=0;fontFamily=Lucida Console;fontSize=10;" parent="1" source="G4cIfP8NTKr2SMPwqC4q-5" target="G4cIfP8NTKr2SMPwqC4q-1" edge="1">
          <mxGeometry relative="1" as="geometry" />
        </mxCell>
        <mxCell id="G4cIfP8NTKr2SMPwqC4q-5" value="&lt;font&gt;Início&lt;/font&gt;" style="rounded=1;whiteSpace=wrap;html=1;arcSize=50;fontSize=10;fontFamily=Helvetica;" parent="1" vertex="1">
          <mxGeometry x="184" y="555" width="80" height="20" as="geometry" />
        </mxCell>
        <mxCell id="G4cIfP8NTKr2SMPwqC4q-6" value="&lt;font&gt;Fim&lt;/font&gt;" style="rounded=1;whiteSpace=wrap;html=1;arcSize=50;fontSize=10;fontFamily=Helvetica;" parent="1" vertex="1">
          <mxGeometry x="544" y="555" width="80" height="20" as="geometry" />
        </mxCell>
        <mxCell id="G4cIfP8NTKr2SMPwqC4q-10" value="&lt;font&gt;BDMEP&lt;/font&gt;" style="ellipse;shape=cloud;whiteSpace=wrap;html=1;fontSize=10;fontFamily=Lucida Console;" parent="1" vertex="1">
          <mxGeometry x="294" y="445" width="100" height="60" as="geometry" />
        </mxCell>
        <mxCell id="G4cIfP8NTKr2SMPwqC4q-12" value="CSV" style="shape=note;whiteSpace=wrap;html=1;backgroundOutline=1;darkOpacity=0.05;size=14;fontSize=10;fontFamily=Lucida Console;" parent="1" vertex="1">
          <mxGeometry x="331" y="645" width="46" height="60" as="geometry" />
        </mxCell>
        <mxCell id="G4cIfP8NTKr2SMPwqC4q-16" value="CSV" style="shape=note;whiteSpace=wrap;html=1;backgroundOutline=1;darkOpacity=0.05;size=14;fontSize=10;fontFamily=Lucida Console;" parent="1" vertex="1">
          <mxGeometry x="321" y="655" width="46" height="60" as="geometry" />
        </mxCell>
        <mxCell id="G4cIfP8NTKr2SMPwqC4q-17" value="CSV" style="shape=note;whiteSpace=wrap;html=1;backgroundOutline=1;darkOpacity=0.05;size=14;fontSize=10;fontFamily=Lucida Console;" parent="1" vertex="1">
          <mxGeometry x="311" y="665" width="46" height="60" as="geometry" />
        </mxCell>
        <mxCell id="G4cIfP8NTKr2SMPwqC4q-24" style="edgeStyle=orthogonalEdgeStyle;rounded=0;orthogonalLoop=1;jettySize=auto;html=1;exitX=1;exitY=0.5;exitDx=0;exitDy=0;entryX=0;entryY=0.5;entryDx=0;entryDy=0;fontFamily=Lucida Console;fontSize=10;" parent="1" source="G4cIfP8NTKr2SMPwqC4q-20" target="G4cIfP8NTKr2SMPwqC4q-6" edge="1">
          <mxGeometry relative="1" as="geometry" />
        </mxCell>
        <mxCell id="G4cIfP8NTKr2SMPwqC4q-31" style="edgeStyle=orthogonalEdgeStyle;rounded=0;orthogonalLoop=1;jettySize=auto;html=1;exitX=0.5;exitY=1;exitDx=0;exitDy=0;dashed=1;endArrow=none;endFill=0;startArrow=classic;startFill=1;fontFamily=Lucida Console;fontSize=10;" parent="1" source="G4cIfP8NTKr2SMPwqC4q-20" edge="1">
          <mxGeometry relative="1" as="geometry">
            <mxPoint x="464.33333333333326" y="685" as="targetPoint" />
          </mxGeometry>
        </mxCell>
        <mxCell id="G4cIfP8NTKr2SMPwqC4q-20" value="Carga no&lt;div&gt;banco de dados&lt;/div&gt;" style="rounded=0;whiteSpace=wrap;html=1;fontSize=10;fontFamily=Helvetica;" parent="1" vertex="1">
          <mxGeometry x="424" y="545" width="80" height="40" as="geometry" />
        </mxCell>
        <mxCell id="G4cIfP8NTKr2SMPwqC4q-22" value="STUDY" style="shape=cylinder3;whiteSpace=wrap;html=1;boundedLbl=1;backgroundOutline=1;size=8.999999999999943;fontSize=10;fontFamily=Lucida Console;" parent="1" vertex="1">
          <mxGeometry x="434" y="425" width="60" height="80" as="geometry" />
        </mxCell>
        <mxCell id="G4cIfP8NTKr2SMPwqC4q-25" value="&lt;font&gt;/archive/&lt;/font&gt;" style="rounded=0;whiteSpace=wrap;html=1;align=left;dashed=1;fontSize=10;verticalAlign=bottom;spacingLeft=2;fontFamily=Lucida Console;" parent="1" vertex="1">
          <mxGeometry x="524" y="625" width="120" height="120" as="geometry" />
        </mxCell>
        <mxCell id="G4cIfP8NTKr2SMPwqC4q-26" value="CSV" style="shape=note;whiteSpace=wrap;html=1;backgroundOutline=1;darkOpacity=0.05;size=14;fontSize=10;fontFamily=Lucida Console;" parent="1" vertex="1">
          <mxGeometry x="571" y="645" width="46" height="60" as="geometry" />
        </mxCell>
        <mxCell id="G4cIfP8NTKr2SMPwqC4q-27" value="CSV" style="shape=note;whiteSpace=wrap;html=1;backgroundOutline=1;darkOpacity=0.05;size=14;fontSize=10;fontFamily=Lucida Console;" parent="1" vertex="1">
          <mxGeometry x="561" y="655" width="46" height="60" as="geometry" />
        </mxCell>
        <mxCell id="G4cIfP8NTKr2SMPwqC4q-28" value="CSV" style="shape=note;whiteSpace=wrap;html=1;backgroundOutline=1;darkOpacity=0.05;size=14;fontSize=10;fontFamily=Lucida Console;" parent="1" vertex="1">
          <mxGeometry x="551" y="665" width="46" height="60" as="geometry" />
        </mxCell>
        <mxCell id="G4cIfP8NTKr2SMPwqC4q-32" style="edgeStyle=orthogonalEdgeStyle;rounded=0;orthogonalLoop=1;jettySize=auto;html=1;exitX=0.5;exitY=0;exitDx=0;exitDy=0;entryX=0.5;entryY=1;entryDx=0;entryDy=0;entryPerimeter=0;dashed=1;fontFamily=Lucida Console;fontSize=10;" parent="1" source="G4cIfP8NTKr2SMPwqC4q-20" target="G4cIfP8NTKr2SMPwqC4q-22" edge="1">
          <mxGeometry relative="1" as="geometry" />
        </mxCell>
        <mxCell id="G4cIfP8NTKr2SMPwqC4q-33" style="edgeStyle=orthogonalEdgeStyle;rounded=0;orthogonalLoop=1;jettySize=auto;html=1;exitX=0.5;exitY=0;exitDx=0;exitDy=0;entryX=0.503;entryY=1;entryDx=0;entryDy=0;entryPerimeter=0;endArrow=none;endFill=0;startArrow=classic;startFill=1;dashed=1;fontFamily=Lucida Console;fontSize=10;" parent="1" source="G4cIfP8NTKr2SMPwqC4q-1" target="G4cIfP8NTKr2SMPwqC4q-10" edge="1">
          <mxGeometry relative="1" as="geometry" />
        </mxCell>
        <mxCell id="G4cIfP8NTKr2SMPwqC4q-60" value="ID" style="text;html=1;align=left;verticalAlign=middle;whiteSpace=wrap;rounded=0;fontSize=10;spacingLeft=2;fontFamily=Lucida Console;" parent="1" vertex="1">
          <mxGeometry x="1021" y="465" width="80" height="20" as="geometry" />
        </mxCell>
        <mxCell id="G4cIfP8NTKr2SMPwqC4q-61" value="CODE" style="text;html=1;align=left;verticalAlign=middle;whiteSpace=wrap;rounded=0;fontSize=10;spacingLeft=2;fontFamily=Lucida Console;" parent="1" vertex="1">
          <mxGeometry x="1021" y="485" width="80" height="20" as="geometry" />
        </mxCell>
        <mxCell id="G4cIfP8NTKr2SMPwqC4q-62" value="NAME" style="text;html=1;align=left;verticalAlign=middle;whiteSpace=wrap;rounded=0;fontSize=10;spacingLeft=2;fontFamily=Lucida Console;" parent="1" vertex="1">
          <mxGeometry x="1021" y="505" width="80" height="20" as="geometry" />
        </mxCell>
        <mxCell id="G4cIfP8NTKr2SMPwqC4q-63" value="STATE" style="text;html=1;align=left;verticalAlign=middle;whiteSpace=wrap;rounded=0;fontSize=10;spacingLeft=2;fontFamily=Lucida Console;" parent="1" vertex="1">
          <mxGeometry x="1021" y="525" width="80" height="20" as="geometry" />
        </mxCell>
        <mxCell id="G4cIfP8NTKr2SMPwqC4q-64" value="ALTITUDE" style="text;html=1;align=left;verticalAlign=middle;whiteSpace=wrap;rounded=0;fontSize=10;spacingLeft=2;fontFamily=Lucida Console;" parent="1" vertex="1">
          <mxGeometry x="1021" y="545" width="80" height="20" as="geometry" />
        </mxCell>
        <mxCell id="G4cIfP8NTKr2SMPwqC4q-65" value="LATITUDE" style="text;html=1;align=left;verticalAlign=middle;whiteSpace=wrap;rounded=0;fontSize=10;spacingLeft=2;fontFamily=Lucida Console;" parent="1" vertex="1">
          <mxGeometry x="1021" y="565" width="80" height="20" as="geometry" />
        </mxCell>
        <mxCell id="G4cIfP8NTKr2SMPwqC4q-66" value="LONGITUDE" style="text;html=1;align=left;verticalAlign=middle;whiteSpace=wrap;rounded=0;fontSize=10;spacingLeft=2;fontFamily=Lucida Console;" parent="1" vertex="1">
          <mxGeometry x="1021" y="585" width="80" height="20" as="geometry" />
        </mxCell>
        <mxCell id="G4cIfP8NTKr2SMPwqC4q-67" value="COORDINATE" style="text;html=1;align=left;verticalAlign=middle;whiteSpace=wrap;rounded=0;fontSize=10;spacingLeft=2;fontFamily=Lucida Console;" parent="1" vertex="1">
          <mxGeometry x="1021" y="605" width="80" height="20" as="geometry" />
        </mxCell>
        <mxCell id="G4cIfP8NTKr2SMPwqC4q-68" value="FOUNDED_AT" style="text;html=1;align=left;verticalAlign=middle;whiteSpace=wrap;rounded=0;fontSize=10;spacingLeft=2;fontFamily=Lucida Console;" parent="1" vertex="1">
          <mxGeometry x="1021" y="625" width="80" height="20" as="geometry" />
        </mxCell>
        <mxCell id="G4cIfP8NTKr2SMPwqC4q-69" value="CREATED_AT" style="text;html=1;align=left;verticalAlign=middle;whiteSpace=wrap;rounded=0;fontSize=10;spacingLeft=2;fontFamily=Lucida Console;" parent="1" vertex="1">
          <mxGeometry x="1021" y="645" width="80" height="20" as="geometry" />
        </mxCell>
        <mxCell id="G4cIfP8NTKr2SMPwqC4q-70" value="bigint, PK" style="text;html=1;align=left;verticalAlign=middle;whiteSpace=wrap;rounded=0;fontSize=10;" parent="1" vertex="1">
          <mxGeometry x="1101" y="465" width="80" height="20" as="geometry" />
        </mxCell>
        <mxCell id="G4cIfP8NTKr2SMPwqC4q-71" value="varchar&lt;span style=&quot;color: rgba(0, 0, 0, 0); font-family: monospace; font-size: 0px; text-wrap-mode: nowrap;&quot;&gt;%3CmxGraphModel%3E%3Croot%3E%3CmxCell%20id%3D%220%22%2F%3E%3CmxCell%20id%3D%221%22%20parent%3D%220%22%2F%3E%3CmxCell%20id%3D%222%22%20value%3D%22bigint%22%20style%3D%22text%3Bhtml%3D1%3Balign%3Dleft%3BverticalAlign%3Dmiddle%3BwhiteSpace%3Dwrap%3Brounded%3D0%3BfontSize%3D10%3B%22%20vertex%3D%221%22%20parent%3D%221%22%3E%3CmxGeometry%20x%3D%22680%22%20y%3D%22760%22%20width%3D%2280%22%20height%3D%2220%22%20as%3D%22geometry%22%2F%3E%3C%2FmxCell%3E%3C%2Froot%3E%3C%2FmxGraphModel%3E&lt;/span&gt;" style="text;html=1;align=left;verticalAlign=middle;whiteSpace=wrap;rounded=0;fontSize=10;" parent="1" vertex="1">
          <mxGeometry x="1101" y="485" width="80" height="20" as="geometry" />
        </mxCell>
        <mxCell id="G4cIfP8NTKr2SMPwqC4q-72" value="varchar&lt;span style=&quot;color: rgba(0, 0, 0, 0); font-family: monospace; font-size: 0px; text-wrap-mode: nowrap;&quot;&gt;%3CmxGraphModel%3E%3Croot%3E%3CmxCell%20id%3D%220%22%2F%3E%3CmxCell%20id%3D%221%22%20parent%3D%220%22%2F%3E%3CmxCell%20id%3D%222%22%20value%3D%22bigint%22%20style%3D%22text%3Bhtml%3D1%3Balign%3Dleft%3BverticalAlign%3Dmiddle%3BwhiteSpace%3Dwrap%3Brounded%3D0%3BfontSize%3D10%3B%22%20vertex%3D%221%22%20parent%3D%221%22%3E%3CmxGeometry%20x%3D%22680%22%20y%3D%22760%22%20width%3D%2280%22%20height%3D%2220%22%20as%3D%22geometry%22%2F%3E%3C%2FmxCell%3E%3C%2Froot%3E%3C%2FmxGraphModel%3E&lt;/span&gt;" style="text;html=1;align=left;verticalAlign=middle;whiteSpace=wrap;rounded=0;fontSize=10;" parent="1" vertex="1">
          <mxGeometry x="1101" y="505" width="80" height="20" as="geometry" />
        </mxCell>
        <mxCell id="G4cIfP8NTKr2SMPwqC4q-73" value="varchar&lt;span style=&quot;color: rgba(0, 0, 0, 0); font-family: monospace; font-size: 0px; text-wrap-mode: nowrap;&quot;&gt;%3CmxGraphModel%3E%3Croot%3E%3CmxCell%20id%3D%220%22%2F%3E%3CmxCell%20id%3D%221%22%20parent%3D%220%22%2F%3E%3CmxCell%20id%3D%222%22%20value%3D%22bigint%22%20style%3D%22text%3Bhtml%3D1%3Balign%3Dleft%3BverticalAlign%3Dmiddle%3BwhiteSpace%3Dwrap%3Brounded%3D0%3BfontSize%3D10%3B%22%20vertex%3D%221%22%20parent%3D%221%22%3E%3CmxGeometry%20x%3D%22680%22%20y%3D%22760%22%20width%3D%2280%22%20height%3D%2220%22%20as%3D%22geometry%22%2F%3E%3C%2FmxCell%3E%3C%2Froot%3E%3C%2FmxGraphModel%3E&lt;/span&gt;" style="text;html=1;align=left;verticalAlign=middle;whiteSpace=wrap;rounded=0;fontSize=10;" parent="1" vertex="1">
          <mxGeometry x="1101" y="525" width="80" height="20" as="geometry" />
        </mxCell>
        <mxCell id="G4cIfP8NTKr2SMPwqC4q-74" value="float" style="text;html=1;align=left;verticalAlign=middle;whiteSpace=wrap;rounded=0;fontSize=10;" parent="1" vertex="1">
          <mxGeometry x="1101" y="545" width="80" height="20" as="geometry" />
        </mxCell>
        <mxCell id="G4cIfP8NTKr2SMPwqC4q-75" value="decimal" style="text;html=1;align=left;verticalAlign=middle;whiteSpace=wrap;rounded=0;fontSize=10;" parent="1" vertex="1">
          <mxGeometry x="1101" y="565" width="80" height="20" as="geometry" />
        </mxCell>
        <mxCell id="G4cIfP8NTKr2SMPwqC4q-76" value="decimal" style="text;html=1;align=left;verticalAlign=middle;whiteSpace=wrap;rounded=0;fontSize=10;" parent="1" vertex="1">
          <mxGeometry x="1101" y="585" width="80" height="20" as="geometry" />
        </mxCell>
        <mxCell id="G4cIfP8NTKr2SMPwqC4q-77" value="geography::point" style="text;html=1;align=left;verticalAlign=middle;whiteSpace=wrap;rounded=0;fontSize=10;" parent="1" vertex="1">
          <mxGeometry x="1101" y="605" width="80" height="20" as="geometry" />
        </mxCell>
        <mxCell id="G4cIfP8NTKr2SMPwqC4q-78" value="date&lt;span style=&quot;color: rgba(0, 0, 0, 0); font-family: monospace; font-size: 0px; text-wrap-mode: nowrap;&quot;&gt;%3CmxGraphModel%3E%3Croot%3E%3CmxCell%20id%3D%220%22%2F%3E%3CmxCell%20id%3D%221%22%20parent%3D%220%22%2F%3E%3CmxCell%20id%3D%222%22%20value%3D%22varchar%26lt%3Bspan%20style%3D%26quot%3Bcolor%3A%20rgba(0%2C%200%2C%200%2C%200)%3B%20font-family%3A%20monospace%3B%20font-size%3A%200px%3B%20text-wrap-mode%3A%20nowrap%3B%26quot%3B%26gt%3B%253CmxGraphModel%253E%253Croot%253E%253CmxCell%2520id%253D%25220%2522%252F%253E%253CmxCell%2520id%253D%25221%2522%2520parent%253D%25220%2522%252F%253E%253CmxCell%2520id%253D%25222%2522%2520value%253D%2522bigint%2522%2520style%253D%2522text%253Bhtml%253D1%253Balign%253Dleft%253BverticalAlign%253Dmiddle%253BwhiteSpace%253Dwrap%253Brounded%253D0%253BfontSize%253D10%253B%2522%2520vertex%253D%25221%2522%2520parent%253D%25221%2522%253E%253CmxGeometry%2520x%253D%2522680%2522%2520y%253D%2522760%2522%2520width%253D%252280%2522%2520height%253D%252220%2522%2520as%253D%2522geometry%2522%252F%253E%253C%252FmxCell%253E%253C%252Froot%253E%253C%252FmxGraphModel%253E%26lt%3B%2Fspan%26gt%3B%22%20style%3D%22text%3Bhtml%3D1%3Balign%3Dleft%3BverticalAlign%3Dmiddle%3BwhiteSpace%3Dwrap%3Brounded%3D0%3BfontSize%3D10%3B%22%20vertex%3D%221%22%20parent%3D%221%22%3E%3CmxGeometry%20x%3D%22680%22%20y%3D%22780%22%20width%3D%2280%22%20height%3D%2220%22%20as%3D%22geometry%22%2F%3E%3C%2FmxCell%3E%3C%2Froot%3E%3C%2FmxGraphModel%3E&lt;/span&gt;" style="text;html=1;align=left;verticalAlign=middle;whiteSpace=wrap;rounded=0;fontSize=10;" parent="1" vertex="1">
          <mxGeometry x="1101" y="625" width="80" height="20" as="geometry" />
        </mxCell>
        <mxCell id="G4cIfP8NTKr2SMPwqC4q-79" value="datetime" style="text;html=1;align=left;verticalAlign=middle;whiteSpace=wrap;rounded=0;fontSize=10;" parent="1" vertex="1">
          <mxGeometry x="1101" y="645" width="80" height="20" as="geometry" />
        </mxCell>
        <mxCell id="G4cIfP8NTKr2SMPwqC4q-80" value="ID" style="text;html=1;align=left;verticalAlign=middle;whiteSpace=wrap;rounded=0;fontSize=10;spacingLeft=2;fontFamily=Lucida Console;" parent="1" vertex="1">
          <mxGeometry x="1241" y="465" width="80" height="20" as="geometry" />
        </mxCell>
        <mxCell id="G4cIfP8NTKr2SMPwqC4q-81" value="STATION_ID" style="text;html=1;align=left;verticalAlign=middle;whiteSpace=wrap;rounded=0;fontSize=10;spacingLeft=2;fontFamily=Lucida Console;" parent="1" vertex="1">
          <mxGeometry x="1241" y="485" width="80" height="20" as="geometry" />
        </mxCell>
        <mxCell id="G4cIfP8NTKr2SMPwqC4q-82" value="PRECIPITATION" style="text;html=1;align=left;verticalAlign=middle;whiteSpace=wrap;rounded=0;fontSize=10;spacingLeft=2;fontFamily=Lucida Console;" parent="1" vertex="1">
          <mxGeometry x="1241" y="505" width="80" height="20" as="geometry" />
        </mxCell>
        <mxCell id="G4cIfP8NTKr2SMPwqC4q-83" value="PRESSURE" style="text;html=1;align=left;verticalAlign=middle;whiteSpace=wrap;rounded=0;fontSize=10;spacingLeft=2;fontFamily=Lucida Console;" parent="1" vertex="1">
          <mxGeometry x="1241" y="525" width="80" height="20" as="geometry" />
        </mxCell>
        <mxCell id="G4cIfP8NTKr2SMPwqC4q-84" value="RADIATION" style="text;html=1;align=left;verticalAlign=middle;whiteSpace=wrap;rounded=0;fontSize=10;spacingLeft=2;fontFamily=Lucida Console;" parent="1" vertex="1">
          <mxGeometry x="1241" y="545" width="80" height="20" as="geometry" />
        </mxCell>
        <mxCell id="G4cIfP8NTKr2SMPwqC4q-85" value="DRY_AIR_TEMPERATURE" style="text;html=1;align=left;verticalAlign=middle;whiteSpace=wrap;rounded=0;fontSize=10;spacingLeft=2;fontFamily=Lucida Console;" parent="1" vertex="1">
          <mxGeometry x="1241" y="565" width="80" height="20" as="geometry" />
        </mxCell>
        <mxCell id="G4cIfP8NTKr2SMPwqC4q-86" value="WET_AIR_TEMPERATURE" style="text;html=1;align=left;verticalAlign=middle;whiteSpace=wrap;rounded=0;fontSize=10;spacingLeft=2;fontFamily=Lucida Console;" parent="1" vertex="1">
          <mxGeometry x="1241" y="585" width="80" height="20" as="geometry" />
        </mxCell>
        <mxCell id="G4cIfP8NTKr2SMPwqC4q-87" value="RELATIVE_HUMIDITY" style="text;html=1;align=left;verticalAlign=middle;whiteSpace=wrap;rounded=0;fontSize=10;spacingLeft=2;fontFamily=Lucida Console;" parent="1" vertex="1">
          <mxGeometry x="1241" y="605" width="80" height="20" as="geometry" />
        </mxCell>
        <mxCell id="G4cIfP8NTKr2SMPwqC4q-88" value="WIND_DIRECTION" style="text;html=1;align=left;verticalAlign=middle;whiteSpace=wrap;rounded=0;fontSize=10;spacingLeft=2;fontFamily=Lucida Console;" parent="1" vertex="1">
          <mxGeometry x="1241" y="625" width="80" height="20" as="geometry" />
        </mxCell>
        <mxCell id="G4cIfP8NTKr2SMPwqC4q-89" value="WIND_GUST" style="text;html=1;align=left;verticalAlign=middle;whiteSpace=wrap;rounded=0;fontSize=10;spacingLeft=2;fontFamily=Lucida Console;" parent="1" vertex="1">
          <mxGeometry x="1241" y="645" width="80" height="20" as="geometry" />
        </mxCell>
        <mxCell id="G4cIfP8NTKr2SMPwqC4q-90" value="bigint, PK" style="text;html=1;align=left;verticalAlign=middle;whiteSpace=wrap;rounded=0;fontSize=10;" parent="1" vertex="1">
          <mxGeometry x="1381" y="465" width="80" height="20" as="geometry" />
        </mxCell>
        <mxCell id="G4cIfP8NTKr2SMPwqC4q-91" value="bigint, FK" style="text;html=1;align=left;verticalAlign=middle;whiteSpace=wrap;rounded=0;fontSize=10;" parent="1" vertex="1">
          <mxGeometry x="1381" y="485" width="80" height="20" as="geometry" />
        </mxCell>
        <mxCell id="G4cIfP8NTKr2SMPwqC4q-94" value="float" style="text;html=1;align=left;verticalAlign=middle;whiteSpace=wrap;rounded=0;fontSize=10;" parent="1" vertex="1">
          <mxGeometry x="1381" y="665" width="80" height="20" as="geometry" />
        </mxCell>
        <mxCell id="G4cIfP8NTKr2SMPwqC4q-98" value="datetimeoffset" style="text;html=1;align=left;verticalAlign=middle;whiteSpace=wrap;rounded=0;fontSize=10;" parent="1" vertex="1">
          <mxGeometry x="1381" y="685" width="80" height="20" as="geometry" />
        </mxCell>
        <mxCell id="G4cIfP8NTKr2SMPwqC4q-99" value="datetime" style="text;html=1;align=left;verticalAlign=middle;whiteSpace=wrap;rounded=0;fontSize=10;" parent="1" vertex="1">
          <mxGeometry x="1381" y="705" width="80" height="20" as="geometry" />
        </mxCell>
        <mxCell id="G4cIfP8NTKr2SMPwqC4q-100" value="WIND_SPEED" style="text;html=1;align=left;verticalAlign=middle;whiteSpace=wrap;rounded=0;fontSize=10;spacingLeft=2;fontFamily=Lucida Console;" parent="1" vertex="1">
          <mxGeometry x="1241" y="665" width="80" height="20" as="geometry" />
        </mxCell>
        <mxCell id="G4cIfP8NTKr2SMPwqC4q-101" value="TIMESTAMP" style="text;html=1;align=left;verticalAlign=middle;whiteSpace=wrap;rounded=0;fontSize=10;spacingLeft=2;fontFamily=Lucida Console;" parent="1" vertex="1">
          <mxGeometry x="1241" y="685" width="80" height="20" as="geometry" />
        </mxCell>
        <mxCell id="G4cIfP8NTKr2SMPwqC4q-102" value="CREATED_AT" style="text;html=1;align=left;verticalAlign=middle;whiteSpace=wrap;rounded=0;fontSize=10;spacingLeft=2;fontFamily=Lucida Console;" parent="1" vertex="1">
          <mxGeometry x="1241" y="705" width="80" height="20" as="geometry" />
        </mxCell>
        <mxCell id="G4cIfP8NTKr2SMPwqC4q-103" value="float" style="text;html=1;align=left;verticalAlign=middle;whiteSpace=wrap;rounded=0;fontSize=10;" parent="1" vertex="1">
          <mxGeometry x="1381" y="645" width="80" height="20" as="geometry" />
        </mxCell>
        <mxCell id="G4cIfP8NTKr2SMPwqC4q-104" value="float" style="text;html=1;align=left;verticalAlign=middle;whiteSpace=wrap;rounded=0;fontSize=10;" parent="1" vertex="1">
          <mxGeometry x="1381" y="625" width="80" height="20" as="geometry" />
        </mxCell>
        <mxCell id="G4cIfP8NTKr2SMPwqC4q-105" value="float" style="text;html=1;align=left;verticalAlign=middle;whiteSpace=wrap;rounded=0;fontSize=10;" parent="1" vertex="1">
          <mxGeometry x="1381" y="605" width="80" height="20" as="geometry" />
        </mxCell>
        <mxCell id="G4cIfP8NTKr2SMPwqC4q-106" value="float" style="text;html=1;align=left;verticalAlign=middle;whiteSpace=wrap;rounded=0;fontSize=10;" parent="1" vertex="1">
          <mxGeometry x="1381" y="585" width="80" height="20" as="geometry" />
        </mxCell>
        <mxCell id="G4cIfP8NTKr2SMPwqC4q-107" value="float" style="text;html=1;align=left;verticalAlign=middle;whiteSpace=wrap;rounded=0;fontSize=10;" parent="1" vertex="1">
          <mxGeometry x="1381" y="565" width="80" height="20" as="geometry" />
        </mxCell>
        <mxCell id="G4cIfP8NTKr2SMPwqC4q-108" value="float" style="text;html=1;align=left;verticalAlign=middle;whiteSpace=wrap;rounded=0;fontSize=10;" parent="1" vertex="1">
          <mxGeometry x="1381" y="545" width="80" height="20" as="geometry" />
        </mxCell>
        <mxCell id="G4cIfP8NTKr2SMPwqC4q-109" value="float" style="text;html=1;align=left;verticalAlign=middle;whiteSpace=wrap;rounded=0;fontSize=10;" parent="1" vertex="1">
          <mxGeometry x="1381" y="525" width="80" height="20" as="geometry" />
        </mxCell>
        <mxCell id="G4cIfP8NTKr2SMPwqC4q-110" value="float" style="text;html=1;align=left;verticalAlign=middle;whiteSpace=wrap;rounded=0;fontSize=10;" parent="1" vertex="1">
          <mxGeometry x="1381" y="505" width="80" height="20" as="geometry" />
        </mxCell>
        <mxCell id="G4cIfP8NTKr2SMPwqC4q-117" value="WEATHER_STATION" style="rounded=0;whiteSpace=wrap;html=1;fontSize=10;fontFamily=Lucida Console;" parent="1" vertex="1">
          <mxGeometry x="1021" y="445" width="180" height="20" as="geometry" />
        </mxCell>
      </root>
    </mxGraphModel>
  </diagram>
</mxfile>
